<svg xmlns="http://www.w3.org/2000/svg" viewBox="0 0 200 200"><defs><style>.cls-1{fill:#fff;}.cls-2{fill:#ccc;}.cls-3{fill:#f9f9f9;}.cls-4{fill:#e0e0e0;}</style></defs><title>4.0占位图</title><g id="图片"><rect class="cls-1" x="6.5" y="35.5" width="186.5" height="132" rx="12.22" ry="12.22"/><path class="cls-2" d="M180.78,36.5A11.22,11.22,0,0,1,192,47.72V155.28a11.22,11.22,0,0,1-11.22,11.22H18.72A11.22,11.22,0,0,1,7.5,155.28V47.72A11.22,11.22,0,0,1,18.72,36.5H180.78m0-2H18.72A13.23,13.23,0,0,0,5.5,47.72V155.28A13.23,13.23,0,0,0,18.72,168.5H180.78A13.23,13.23,0,0,0,194,155.28V47.72A13.23,13.23,0,0,0,180.78,34.5Z"/><path class="cls-3" d="M142.5,96A17.5,17.5,0,1,1,160,78.5,17.52,17.52,0,0,1,142.5,96Z"/><path class="cls-4" d="M142.5,61.5a17,17,0,1,1-17,17,17,17,0,0,1,17-17m0-1a18,18,0,1,0,18,18,18,18,0,0,0-18-18Z"/><path class="cls-3" d="M28.1,145a2.13,2.13,0,0,1-2-2.78l11.68-36.7a2.13,2.13,0,0,1,2-1.49,2.09,2.09,0,0,1,1.41.54l12.71,11.3a3.13,3.13,0,0,0,4.69-.6L81.1,81.5a2.13,2.13,0,0,1,3.31-.3l49.49,51.32a3.13,3.13,0,0,0,4.84-.4l7.34-10.68a2.14,2.14,0,0,1,1.76-.92,2.11,2.11,0,0,1,1.53.65l19.47,20.21a2.13,2.13,0,0,1-1.54,3.61Z"/><path class="cls-4" d="M82.88,81.05a1.62,1.62,0,0,1,1.17.5l49.49,51.32a3.63,3.63,0,0,0,5.61-.46l7.34-10.68a1.63,1.63,0,0,1,2.52-.21l19.47,20.21a1.63,1.63,0,0,1-1.18,2.77H28.1a1.63,1.63,0,0,1-1.56-2.13l11.68-36.7a1.64,1.64,0,0,1,1.56-1.14,1.6,1.6,0,0,1,1.08.41l12.71,11.3a3.63,3.63,0,0,0,5.44-.7L81.52,81.78a1.63,1.63,0,0,1,1.36-.73m0-1a2.62,2.62,0,0,0-2.19,1.17L58.18,115a2.63,2.63,0,0,1-3.94.51l-12.71-11.3a2.63,2.63,0,0,0-4.26,1.17l-11.68,36.7a2.63,2.63,0,0,0,2.51,3.43H167.31a2.63,2.63,0,0,0,1.9-4.46l-19.47-20.21a2.63,2.63,0,0,0-4.07.33l-7.34,10.68a2.63,2.63,0,0,1-4.07.34L84.77,80.86a2.62,2.62,0,0,0-1.89-.81Z"/></g></svg>