<?xml version="1.0" encoding="UTF-8"?>
<svg width="80px" height="80px" viewBox="0 0 80 80" version="1.1" xmlns="http://www.w3.org/2000/svg" xmlns:xlink="http://www.w3.org/1999/xlink">
    <!-- Generator: Sketch 47 (45396) - http://www.bohemiancoding.com/sketch -->
    <title>系统库</title>
    <desc>Created with Sketch.</desc>
    <defs></defs>
    <g id="图标" stroke="none" stroke-width="1" fill="none" fill-rule="evenodd">
        <g id="业务icon" transform="translate(-156.000000, -216.000000)">
            <g id="系统库" transform="translate(156.000000, 216.000000)">
                <circle id="Oval" fill="#F3F8FF" cx="40" cy="40" r="40"></circle>
                <path d="M19,20 L38.8882029,20 L43.1896086,25 L61,25 L61,25 C62.1045695,25 63,25.8954305 63,27 L63,48 L63,48 C63,49.1045695 62.1045695,50 61,50 L19,50 L19,50 C17.8954305,50 17,49.1045695 17,48 L17,22 L17,22 C17,20.8954305 17.8954305,20 19,20 Z" id="Rectangle" fill="#A1B1C6"></path>
                <rect id="Rectangle-Copy" fill="#FFFFFF" x="21" y="28" width="38" height="30"></rect>
                <rect id="Rectangle-Copy" fill="#DBEAFD" x="17" y="31" width="46" height="30" rx="2"></rect>
                <g id="Group-186" transform="translate(32.000000, 39.000000)" fill-rule="nonzero" fill="#FFFFFF">
                    <g id="desktop">
                        <path d="M14.9285714,0 L1.02142857,0 C0.458928571,0 0,0.468489583 0,1.04270833 L0,9.7890625 C0,10.3632812 0.458928571,10.8317708 1.02142857,10.8317708 L7.39285714,10.8317708 L7.39285714,12.7986979 L4.7625,12.7986979 C4.45178571,12.7986979 4.19821429,13.0575521 4.19821429,13.3747396 C4.19821429,13.6919271 4.45178571,13.9507812 4.7625,13.9507812 L11.1625,13.9507812 C11.4732143,13.9507812 11.7267857,13.6919271 11.7267857,13.3747396 C11.7267857,13.0575521 11.4732143,12.7986979 11.1625,12.7986979 L8.52142857,12.7986979 L8.52142857,10.8317708 L14.9285714,10.8317708 C15.4910714,10.8317708 15.95,10.3632812 15.95,9.7890625 L15.95,1.04270833 C15.95,0.468489583 15.4910714,0 14.9285714,0 Z M14.8214286,1.15208333 L14.8214286,9.6796875 L1.12857143,9.6796875 L1.12857143,1.15208333 L14.8214286,1.15208333 Z" id="Shape"></path>
                    </g>
                </g>
            </g>
        </g>
    </g>
</svg>