<?xml version="1.0" encoding="UTF-8"?>
<svg width="80px" height="80px" viewBox="0 0 80 80" version="1.1" xmlns="http://www.w3.org/2000/svg" xmlns:xlink="http://www.w3.org/1999/xlink">
    <!-- Generator: Sketch 47 (45396) - http://www.bohemiancoding.com/sketch -->
    <title>人脸库（空）</title>
    <desc>Created with Sketch.</desc>
    <defs></defs>
    <g id="图标" stroke="none" stroke-width="1" fill="none" fill-rule="evenodd">
        <g id="业务icon" transform="translate(-40.000000, -312.000000)">
            <g id="人脸库（空）" transform="translate(40.000000, 312.000000)">
                <circle id="Oval" fill="#F4EBD6" cx="40" cy="40" r="40"></circle>
                <path d="M19,20 L38.8882029,20 L43.1896086,25 L61,25 L61,25 C62.1045695,25 63,25.8954305 63,27 L63,48 L63,48 C63,49.1045695 62.1045695,50 61,50 L19,50 L19,50 C17.8954305,50 17,49.1045695 17,48 L17,22 L17,22 C17,20.8954305 17.8954305,20 19,20 Z" id="Rectangle" fill="#CE9F06"></path>
                <rect id="Rectangle-Copy" fill="#FFCD2C" x="17" y="31" width="46" height="30" rx="2"></rect>
                <g id="Group-89" transform="translate(32.000000, 38.000000)" fill-rule="nonzero" fill="#FFEEB5">
                    <g id="contacts">
                        <path d="M3.42857143,11.2142857 C3.42857143,10.8589286 3.14107143,10.5714286 2.78571429,10.5714286 L0.642857143,10.5714286 C0.2875,10.5714286 0,10.8589286 0,11.2142857 C0,11.5696429 0.2875,11.8571429 0.642857143,11.8571429 L2.78571429,11.8571429 C3.14107143,11.8571429 3.42857143,11.5696429 3.42857143,11.2142857 Z M0.642857143,5.46428571 L2.78571429,5.46428571 C3.14107143,5.46428571 3.42857143,5.17678571 3.42857143,4.82142857 C3.42857143,4.46607143 3.14107143,4.17857143 2.78571429,4.17857143 L0.642857143,4.17857143 C0.2875,4.17857143 0,4.46607143 0,4.82142857 C0,5.17678571 0.2875,5.46428571 0.642857143,5.46428571 Z" id="Shape"></path>
                        <path d="M14.7142857,0 L2.42857143,0 C1.71785714,0 1.14285714,0.575 1.14285714,1.28571429 L1.14285714,2.28571429 C1.14285714,2.64107143 1.43035714,2.92857143 1.78571429,2.92857143 C2.14107143,2.92857143 2.42857143,2.64107143 2.42857143,2.28571429 L2.42857143,1.28571429 L14.7142857,1.28571429 L14.7142857,14.7142857 L2.42857143,14.7142857 L2.42857143,13.75 L2.42678571,13.75 C2.42678571,13.7375 2.42857143,13.7267857 2.42857143,13.7142857 C2.42857143,13.3589286 2.14107143,13.0714286 1.78571429,13.0714286 C1.43035714,13.0714286 1.14285714,13.3589286 1.14285714,13.7142857 C1.14285714,13.7267857 1.14285714,13.7375 1.14464286,13.75 L1.14285714,13.75 L1.14285714,14.7142857 C1.14285714,15.425 1.71785714,16 2.42857143,16 L14.7142857,16 C15.425,16 16,15.425 16,14.7142857 L16,1.28571429 C16,0.575 15.425,0 14.7142857,0 Z" id="Shape"></path>
                        <path d="M0.642857143,8.66071429 L2.78571429,8.66071429 C3.14107143,8.66071429 3.42857143,8.37321429 3.42857143,8.01785714 C3.42857143,7.6625 3.14107143,7.375 2.78571429,7.375 L0.642857143,7.375 C0.2875,7.375 0,7.6625 0,8.01785714 C0,8.37321429 0.2875,8.66071429 0.642857143,8.66071429 Z M9.13571429,9.28571429 C7.52142857,9.28571429 6.20714286,7.97142857 6.20714286,6.35714286 C6.20714286,4.74285714 7.52142857,3.42857143 9.13571429,3.42857143 C10.75,3.42857143 12.0642857,4.74285714 12.0642857,6.35714286 C12.0642857,7.97142857 10.75,9.28571429 9.13571429,9.28571429 Z M9.13571429,4.71428571 C8.23035714,4.71428571 7.49285714,5.45178571 7.49285714,6.35714286 C7.49285714,7.2625 8.23035714,8 9.13571429,8 C10.0410714,8 10.7785714,7.2625 10.7785714,6.35714286 C10.7785714,5.45178571 10.0410714,4.71428571 9.13571429,4.71428571 Z" id="Shape"></path>
                        <path d="M12.5035714,12.5714286 C12.2,12.5714286 11.9303571,12.3571429 11.8732143,12.0482143 C11.6232143,10.7375 10.4732143,9.78571429 9.13571429,9.78571429 C7.79821429,9.78571429 6.64821429,10.7375 6.39821429,12.0482143 C6.33928571,12.3571429 6.06964286,12.5714286 5.76785714,12.5714286 C5.72857143,12.5714286 5.6875,12.5678571 5.64821429,12.5607143 C5.3,12.4946429 5.06964286,12.1589286 5.13571429,11.8089286 C5.49821429,9.89107143 7.18035714,8.5 9.13571429,8.5 C11.0892857,8.5 12.7732143,9.89107143 13.1357143,11.8089286 C13.2017857,12.1571429 12.9732143,12.4946429 12.6232143,12.5607143 C12.5839286,12.5678571 12.5428571,12.5714286 12.5035714,12.5714286 L12.5035714,12.5714286 Z" id="Shape"></path>
                    </g>
                </g>
            </g>
        </g>
    </g>
</svg>