<?xml version="1.0" encoding="UTF-8"?>
<svg width="14px" height="10px" viewBox="0 0 14 10" version="1.1" xmlns="http://www.w3.org/2000/svg" xmlns:xlink="http://www.w3.org/1999/xlink">
    <!-- Generator: Sketch 49.2 (51160) - http://www.bohemiancoding.com/sketch -->
    <title>Fill 1</title>
    <desc>Created with Sketch.</desc>
    <defs></defs>
    <g id="1-1实时预警" stroke="none" stroke-width="1" fill="none" fill-rule="evenodd">
        <g id="1-1-3聚集预警-1（或单个点位两个预警）" transform="translate(-311.000000, -685.000000)" fill="#8B8B8B">
            <g id="二级告警" transform="translate(288.000000, 431.000000)">
                <g id="Page-1" transform="translate(23.000000, 254.000000)">
                    <path d="M5.62412308,6.48307692 L5.62412308,6.05230769 L7.3472,6.05230769 L7.3472,4.11384615 L10.6856615,4.11384615 C12.0122154,4.11384615 13.104,5.15781538 13.1625846,6.48307692 L5.62412308,6.48307692 Z M10.5779692,7.66769231 C10.5779692,7.48935385 10.7227077,7.34461538 10.9010462,7.34461538 C11.0793846,7.34461538 11.2241231,7.48935385 11.2241231,7.66769231 C11.2241231,7.84603077 11.0793846,7.99076923 10.9010462,7.99076923 C10.7227077,7.99076923 10.5779692,7.84603077 10.5779692,7.66769231 Z M10.9010462,9.06769231 C10.1278154,9.06769231 9.50104615,8.44092308 9.50104615,7.66769231 C9.50104615,7.48289231 9.53766154,7.29981538 9.60873846,7.12923077 L10.0955077,7.12923077 C9.79784615,7.574 9.91716923,8.176 10.3619385,8.47366154 C10.8069231,8.77153846 11.4089231,8.652 11.7065846,8.20723077 C11.9247692,7.88092308 11.9247692,7.45553846 11.7065846,7.12923077 L12.1933538,7.12923077 C12.4920923,7.84129231 12.1567385,8.66018462 11.4448923,8.95892308 C11.2728,9.03107692 11.0877846,9.06812308 10.9010462,9.06769231 Z M3.48966154,3.332 L3.92043077,2.83015385 L4.53643077,4.28184615 L3.48966154,3.332 Z M2.60873846,1.74461538 L2.60873846,1.52923077 L4.20258462,1.52923077 L3.9872,1.74461538 L2.60873846,1.74461538 Z M2.39335385,7.66769231 C2.39335385,7.84603077 2.24861538,7.99076923 2.07006154,7.99055385 C1.89172308,7.99055385 1.7472,7.84581538 1.7472,7.66726154 C1.7472,7.49301538 1.88547692,7.35043077 2.05950769,7.34461538 C2.1196,7.34483077 2.17861538,7.36206154 2.22966154,7.39415385 L2.32873846,7.48892308 C2.36772308,7.54061538 2.39033846,7.60286154 2.39335385,7.66769231 Z M2.07027692,9.06769231 C1.29704615,9.06941538 0.668984615,8.44393846 0.667261538,7.67070769 C0.665753846,6.89747692 1.29101538,6.26941538 2.06424615,6.26769231 C2.26455385,6.26726154 2.46292308,6.30990769 2.64535385,6.39261538 L2.31581538,6.73723077 C2.23246154,6.71267692 2.14630769,6.69975385 2.05950769,6.69846154 C1.52190769,6.69609231 1.08403077,7.12987692 1.08166154,7.66769231 C1.07907692,8.20529231 1.51307692,8.64295385 2.05067692,8.64553846 C2.58849231,8.64790769 3.02615385,8.21390769 3.02873846,7.67630769 C3.0296,7.47363077 2.96713846,7.27547692 2.84996923,7.10984615 L3.15796923,6.78892308 C3.64452308,7.38833846 3.55298462,8.26861538 2.95356923,8.75516923 C2.70372308,8.95784615 2.39184615,9.06833846 2.07027692,9.06769231 Z M10.6856615,3.46769231 L7.23950769,3.46769231 C6.94206154,3.46769231 6.70104615,3.70870769 6.70104615,4.00615385 L6.70104615,5.40615385 L5.71027692,5.40615385 L5.71027692,5.38676923 L4.41796923,2.34553846 C4.40978462,2.32593846 4.39966154,2.3072 4.38781538,2.28953846 L5.79212308,0.667692308 L6.80873846,0.667692308 C6.99116923,0.657353846 7.13332308,0.505723077 7.13181538,0.323076923 C7.13181538,0.144738462 6.98729231,0 6.80873846,0 L5.73181538,0 C5.69498462,0.000861538462 5.65858462,0.00818461538 5.62412308,0.0215384615 C5.5328,0.0234769231 5.44664615,0.0641846154 5.3872,0.133538462 L4.76258462,0.883076923 L2.50104615,0.883076923 C2.00135385,0.883076923 1.96258462,1.20830769 1.96258462,1.31384615 L1.96258462,1.96 C1.96258462,2.06553846 2.00135385,2.39076923 2.50104615,2.39076923 L3.4272,2.39076923 L2.79612308,3.14892308 C2.68175385,3.28181538 2.69424615,3.48147692 2.82412308,3.59907692 L4.16166154,4.81384615 L3.68566154,5.29630769 C3.20966154,4.97753846 2.64966154,4.80738462 2.07673846,4.80738462 C1.8984,4.80738462 1.75366154,4.95212308 1.75366154,5.13046154 C1.75366154,5.3088 1.8984,5.45353846 2.07673846,5.45353846 C2.48273846,5.45375385 2.88076923,5.56381538 3.22904615,5.77230769 L3.09981538,5.90584615 C2.12476923,5.32775385 0.865630769,5.64953846 0.287323077,6.62458462 C-0.290769231,7.59984615 0.0310153846,8.85876923 1.00606154,9.43707692 C1.98110769,10.0151692 3.24046154,9.69338462 3.81855385,8.71833846 C4.27107692,7.95501538 4.18190769,6.98707692 3.59735385,6.31938462 L3.73089231,6.17938462 C4.11987692,6.59615385 4.33612308,7.14495385 4.33612308,7.71507692 C4.33612308,7.89384615 4.48043077,7.98861538 4.6592,7.98861538 C4.83796923,7.98861538 4.98227692,7.89384615 4.98227692,7.71507692 C4.98227692,6.96963077 4.69430769,6.25283077 4.17889231,5.71415385 L4.62689231,5.24892308 L5.05766154,5.64307692 C5.00187692,5.73353846 4.97409231,5.83843077 4.97796923,5.94461538 L4.97796923,6.59076923 C4.97796923,6.88821538 5.21898462,7.12923077 5.51643077,7.12923077 L8.92812308,7.12923077 C8.62852308,8.21886154 9.26886154,9.34510769 10.3584923,9.64470769 C11.4481231,9.94430769 12.5743692,9.30396923 12.8739692,8.21433846 C12.9715385,7.85916923 12.9715385,7.48418462 12.8739692,7.12923077 L13.2702769,7.12923077 C13.5677231,7.12923077 13.8087385,6.88821538 13.8087385,6.59076923 C13.8063692,4.86704615 12.4096,3.47006154 10.6856615,3.46769231 Z" id="Fill-1"></path>
                </g>
            </g>
        </g>
    </g>
</svg>