<?xml version="1.0" encoding="utf-8"?>
<!-- Generated by uplus.hikvision.com.cn -->
<!DOCTYPE svg PUBLIC "-//W3C//DTD SVG 1.1//EN" "http://www.w3.org/Graphics/SVG/1.1/DTD/svg11.dtd">
<svg version="1.1" xmlns="http://www.w3.org/2000/svg" xmlns:xlink="http://www.w3.org/1999/xlink" width="48" height="48" viewBox="0 0 16 16">
	<path fill="#7F8A9A" d="M5.57 9.371c-1.533-0.854-2.57-2.491-2.57-4.371 0-2.761 2.239-5 5-5s5 2.239 5 5c0 1.879-1.037 3.517-2.57 4.371 2.668 0.854 4.57 3.118 4.57 6.129 0 0.276-0.224 0.5-0.5 0.5s-0.5-0.224-0.5-0.5c0-3.314-2.686-5.5-6-5.5s-6 2.186-6 5.5c0 0.276-0.224 0.5-0.5 0.5s-0.5-0.224-0.5-0.5c0-3.012 1.902-5.276 4.57-6.129zM8 9c2.209 0 4-1.791 4-4s-1.791-4-4-4c-2.209 0-4 1.791-4 4s1.791 4 4 4z" />
</svg>